<?xml version="1.0" encoding="UTF-8" standalone="no"?>
<!-- Generator: Adobe Illustrator 14.0.0, SVG Export Plug-In . SVG Version: 6.00 Build 43363)  -->

<svg
   xmlns:dc="http://purl.org/dc/elements/1.1/"
   xmlns:cc="http://creativecommons.org/ns#"
   xmlns:rdf="http://www.w3.org/1999/02/22-rdf-syntax-ns#"
   xmlns:svg="http://www.w3.org/2000/svg"
   xmlns="http://www.w3.org/2000/svg"
   xmlns:sodipodi="http://sodipodi.sourceforge.net/DTD/sodipodi-0.dtd"
   xmlns:inkscape="http://www.inkscape.org/namespaces/inkscape"
   version="1.1"
   id="Layer_1"
   x="0px"
   y="0px"
   width="48.66"
   height="48.49511"
   viewBox="0 0 48.66 48.49511"
   enable-background="new 0 0 800 600"
   xml:space="preserve"
   inkscape:version="0.47 r22583"
   sodipodi:docname="trac_android_icon.svg"><metadata
   id="metadata39"><rdf:RDF><cc:Work
       rdf:about=""><dc:format>image/svg+xml</dc:format><dc:type
         rdf:resource="http://purl.org/dc/dcmitype/StillImage" /><dc:title></dc:title></cc:Work></rdf:RDF></metadata><defs
   id="defs37"><inkscape:perspective
   sodipodi:type="inkscape:persp3d"
   inkscape:vp_x="0 : 300 : 1"
   inkscape:vp_y="0 : 1000 : 0"
   inkscape:vp_z="800 : 300 : 1"
   inkscape:persp3d-origin="400 : 200 : 1"
   id="perspective41" /><inkscape:perspective
   id="perspective3662"
   inkscape:persp3d-origin="0.5 : 0.33333333 : 1"
   inkscape:vp_z="1 : 0.5 : 1"
   inkscape:vp_y="0 : 1000 : 0"
   inkscape:vp_x="0 : 0.5 : 1"
   sodipodi:type="inkscape:persp3d" />
	
	
	
	
</defs><sodipodi:namedview
   pagecolor="#ffffff"
   bordercolor="#666666"
   borderopacity="1"
   objecttolerance="10"
   gridtolerance="10"
   guidetolerance="10"
   inkscape:pageopacity="0"
   inkscape:pageshadow="2"
   inkscape:window-width="1131"
   inkscape:window-height="668"
   id="namedview35"
   showgrid="false"
   inkscape:zoom="4.7894699"
   inkscape:cx="47.697411"
   inkscape:cy="12.310358"
   inkscape:window-x="0"
   inkscape:window-y="1"
   inkscape:window-maximized="0"
   inkscape:current-layer="Layer_1" />
<g
   id="Layer_2"
   transform="translate(-3.3095397,-1.5555662)">
</g>
<g
   id="Layer_3"
   transform="translate(-3.3095397,-1.5555662)">
</g>
<path
   style="fill:#000000;fill-opacity:1"
   id="path7"
   d="m 11.249719,35.918198 c 0,1.640157 1.329618,2.969775 2.969775,2.969775 h 2.619799 v 6.7546 h 0.0059 c 0.06184,1.585294 1.363154,2.852536 2.963874,2.852536 1.600719,0 2.902034,-1.267108 2.963873,-2.852536 h 0.0059 v -6.7546 h 4.141241 v 6.7546 h 0.0058 c 0.06197,1.585294 1.363153,2.852536 2.963873,2.852536 1.600854,0 2.902034,-1.267108 2.964008,-2.852536 h 0.0058 v -6.7546 h 2.583982 c 1.640292,0 2.969776,-1.329618 2.969776,-2.969775 V 16.265819 H 11.249719 v 19.652379 z" /><path
   style="fill:#000000;fill-opacity:1"
   id="path9"
   d="m 6.447797,15.828917 c -1.3519881,0 -2.4477973,1.329753 -2.4477973,2.96991 l 0,12.140412 c 0,1.640158 1.0959197,2.969642 2.4477973,2.969642 1.3518776,0 2.4477972,-1.329484 2.4477972,-2.969642 l 0,-12.140412 c 0,-1.640157 -1.0959196,-2.96991 -2.4477972,-2.96991 z" /><path
   style="fill:#000000;fill-opacity:1"
   id="path11"
   d="m 43.214902,15.828917 c -1.351995,0 -2.44792,1.329753 -2.44792,2.96991 l 0,12.140412 c 0,1.640158 1.095925,2.969642 2.44792,2.969642 1.351995,0 2.447809,-1.329484 2.447809,-2.969642 l 0,-12.140412 c 0,-1.640157 -1.095814,-2.96991 -2.447809,-2.96991 z" /><path
   style="fill:#000000;fill-opacity:1"
   id="path13"
   d="M 31.425923,4.3551923 33.660197,0.54367388 C 33.760938,0.37170349 33.703257,0.15050289 33.531286,0.0496279 33.359316,-0.05124709 33.138249,0.00656823 33.03724,0.17853862 L 30.770773,4.0450554 C 28.976486,3.2553599 26.961669,2.8112148 24.831758,2.8112148 c -2.117704,0 -4.121924,0.4383769 -5.908297,1.2194874 L 16.665445,0.17853862 C 16.56457,0.00656823 16.343503,-0.05111295 16.171533,0.0496279 15.999428,0.15036874 15.941747,0.37156935 16.042622,0.54367388 L 18.26764,4.3393636 C 14.084011,6.4309098 11.249987,10.457861 11.249987,15.084294 H 38.413663 C 38.413394,10.469129 35.592785,6.4510312 31.425923,4.3551923 z M 18.554302,10.443373 c -0.693113,0 -1.254901,-0.5617874 -1.254901,-1.2549005 0,-0.6931131 0.561788,-1.254901 1.254901,-1.254901 0.693113,0 1.254901,0.5617879 1.254901,1.254901 1.34e-4,0.6931131 -0.561654,1.2549005 -1.254901,1.2549005 z m 12.590459,0 c -0.693113,0 -1.254901,-0.5617874 -1.254901,-1.2549005 0,-0.6931131 0.561788,-1.254901 1.254901,-1.254901 0.693113,0 1.254901,0.5617879 1.254901,1.254901 1.34e-4,0.6931131 -0.561654,1.2549005 -1.254901,1.2549005 z" />
<g
   id="g15"
   transform="matrix(0.07533973,0,0,0.07533973,0.56305342,0.39952098)"
   style="fill:#a5ff00;fill-opacity:1">
	<path
   d="m 247.096,291.214 c -13.209,15.748 -13.668,55.117 36.157,73.197 49.827,18.078 22.929,-34.835 16.755,-47.183 -6.173,-12.344 -29.983,-53.353 -52.912,-26.014 z"
   id="path17"
   style="fill:#a5ff00;fill-opacity:1" />
	<path
   d="m 353.209,356.192 c 28.349,1.372 40.236,-101.502 -6.857,-98.302 -47.095,3.201 -21.491,96.931 6.857,98.302 z"
   id="path19"
   style="fill:#a5ff00;fill-opacity:1" />
	<path
   d="m 414.549,320.196 c -22.311,-0.757 -46.469,72.957 -5.577,79.462 40.892,6.505 32.993,-78.534 5.577,-79.462 z"
   id="path21"
   style="fill:#a5ff00;fill-opacity:1" />
	<path
   d="m 289.224,426.194 c 0,0 2.771,-31.231 -30.547,-53.041 -33.319,-21.809 -26.333,40.755 -19.158,50.799 10.741,15.035 46.291,39.73 49.705,2.242 z"
   id="path23"
   style="fill:#a5ff00;fill-opacity:1" />
	<path
   d="m 235.561,367.684 c 0,0 2.629,-16.598 -12.691,-25.96 -15.321,-9.363 -3.131,37.025 12.691,25.96 z"
   id="path25"
   style="fill:#a5ff00;fill-opacity:1" />
	<path
   d="m 253.346,280.867 c 0,0 -21.555,3.509 -8.512,-28.088 2.324,-5.632 21.279,19.151 8.512,28.088 z"
   id="path27"
   style="fill:#a5ff00;fill-opacity:1" />
	<path
   d="m 345.865,249.799 c 0,0 -23.129,-4.681 -12.616,-31.493 5.439,-7.342 25.232,25.961 12.616,31.493 z"
   id="path29"
   style="fill:#a5ff00;fill-opacity:1" />
	<path
   d="m 414.993,315.338 c 0,0 18.033,-2.98 -0.588,-30.215 -1.598,-6.384 -17.652,25.959 0.588,30.215 z"
   id="path31"
   style="fill:#a5ff00;fill-opacity:1" />
	<path
   d="m 385.655,404.72 c -19.969,-14.028 -22.692,-35.359 -46.748,-26.738 -24.054,8.625 -18.153,27.231 -25.415,45.841 -7.263,18.609 -36.763,31.315 -20.425,55.371 16.339,24.055 39.487,-18.606 65.356,-22.238 25.87,-3.632 49.248,0.453 56.167,-7.716 6.919,-8.171 18.447,-24.51 0.202,-32.225 -18.245,-7.716 -29.137,-12.295 -29.137,-12.295 z"
   id="path33"
   style="fill:#a5ff00;fill-opacity:1" />
</g>
</svg>