<?xml version="1.0" encoding="UTF-8" standalone="no"?>
<!-- Created with Inkscape (http://www.inkscape.org/) -->

<svg
   xmlns:dc="http://purl.org/dc/elements/1.1/"
   xmlns:cc="http://creativecommons.org/ns#"
   xmlns:rdf="http://www.w3.org/1999/02/22-rdf-syntax-ns#"
   xmlns:svg="http://www.w3.org/2000/svg"
   xmlns="http://www.w3.org/2000/svg"
   xmlns:xlink="http://www.w3.org/1999/xlink"
   xmlns:sodipodi="http://sodipodi.sourceforge.net/DTD/sodipodi-0.dtd"
   xmlns:inkscape="http://www.inkscape.org/namespaces/inkscape"
   width="97.983154"
   height="90.966316"
   id="svg3037"
   version="1.1"
   inkscape:version="0.47 r22583"
   sodipodi:docname="Nouveau document 3">
  <defs
     id="defs3039">
    <inkscape:perspective
       sodipodi:type="inkscape:persp3d"
       inkscape:vp_x="0 : 526.18109 : 1"
       inkscape:vp_y="0 : 1000 : 0"
       inkscape:vp_z="744.09448 : 526.18109 : 1"
       inkscape:persp3d-origin="372.04724 : 350.78739 : 1"
       id="perspective3045" />
    <inkscape:perspective
       id="perspective2934"
       inkscape:persp3d-origin="0.5 : 0.33333333 : 1"
       inkscape:vp_z="1 : 0.5 : 1"
       inkscape:vp_y="0 : 1000 : 0"
       inkscape:vp_x="0 : 0.5 : 1"
       sodipodi:type="inkscape:persp3d" />
    <linearGradient
       inkscape:collect="always"
       xlink:href="#linearGradient3757"
       id="linearGradient2942"
       gradientUnits="userSpaceOnUse"
       x1="49.057751"
       y1="36.02602"
       x2="49.057751"
       y2="6.0722966"
       gradientTransform="matrix(1,0,0,1.0376471,1.57985,-3.0779857)" />
    <linearGradient
       id="linearGradient3757">
      <stop
         id="stop3759"
         style="stop-color:#c53636;stop-opacity:1"
         offset="0" />
      <stop
         id="stop3761"
         style="stop-color:#d42b2b;stop-opacity:1"
         offset="1" />
    </linearGradient>
    <linearGradient
       y2="6.0722966"
       x2="49.057751"
       y1="36.02602"
       x1="49.057751"
       gradientTransform="matrix(1,0,0,0.68627454,1.39161,17.394954)"
       gradientUnits="userSpaceOnUse"
       id="linearGradient2905"
       xlink:href="#linearGradient3757-0"
       inkscape:collect="always" />
    <linearGradient
       id="linearGradient3757-0">
      <stop
         id="stop3759-6"
         style="stop-color:#c53636;stop-opacity:1"
         offset="0" />
      <stop
         id="stop3761-8"
         style="stop-color:#d42b2b;stop-opacity:1"
         offset="1" />
    </linearGradient>
    <linearGradient
       gradientTransform="translate(1.57985,-2.8521057)"
       inkscape:collect="always"
       xlink:href="#linearGradient3737"
       id="linearGradient2934"
       gradientUnits="userSpaceOnUse"
       x1="36.357143"
       y1="6"
       x2="36.357143"
       y2="63.893143" />
    <linearGradient
       id="linearGradient3737">
      <stop
         id="stop3739"
         style="stop-color:#ffffff;stop-opacity:1"
         offset="0" />
      <stop
         id="stop3741"
         style="stop-color:#ffffff;stop-opacity:0"
         offset="1" />
    </linearGradient>
    <linearGradient
       gradientTransform="translate(1.57985,-2.8521057)"
       inkscape:collect="always"
       xlink:href="#linearGradient3737"
       id="linearGradient2938"
       gradientUnits="userSpaceOnUse"
       x1="82.08036"
       y1="82.290176"
       x2="59.611588"
       y2="59.821404" />
    <linearGradient
       id="linearGradient2951">
      <stop
         id="stop2953"
         style="stop-color:#ffffff;stop-opacity:1"
         offset="0" />
      <stop
         id="stop2955"
         style="stop-color:#ffffff;stop-opacity:0"
         offset="1" />
    </linearGradient>
    <linearGradient
       gradientTransform="translate(1.57985,-2.8521057)"
       inkscape:collect="always"
       xlink:href="#linearGradient3737"
       id="linearGradient2945"
       gradientUnits="userSpaceOnUse"
       x1="46.784908"
       y1="32.026962"
       x2="46.784908"
       y2="68.028786" />
    <linearGradient
       id="linearGradient2958">
      <stop
         id="stop2960"
         style="stop-color:#ffffff;stop-opacity:1"
         offset="0" />
      <stop
         id="stop2962"
         style="stop-color:#ffffff;stop-opacity:0"
         offset="1" />
    </linearGradient>
    <linearGradient
       inkscape:collect="always"
       xlink:href="#linearGradient3777"
       id="linearGradient2948"
       gradientUnits="userSpaceOnUse"
       gradientTransform="matrix(0.71186441,0,0,0.71186441,4.02053,-0.4114257)"
       x1="38.410439"
       y1="39.834473"
       x2="110.98586"
       y2="112.4099" />
    <linearGradient
       id="linearGradient3777">
      <stop
         id="stop3779"
         style="stop-color:#ffffff;stop-opacity:0"
         offset="0" />
      <stop
         id="stop3785"
         style="stop-color:#d7d7d7;stop-opacity:1"
         offset="0.50290233" />
      <stop
         id="stop3781"
         style="stop-color:#cccccc;stop-opacity:1"
         offset="0.76460928" />
      <stop
         id="stop3787"
         style="stop-color:#d7d7d7;stop-opacity:1"
         offset="0.9122979" />
      <stop
         id="stop3783"
         style="stop-color:#ffffff;stop-opacity:1"
         offset="1" />
    </linearGradient>
    <clipPath
       id="clipPath3800">
      <path
         d="m 62,6 c -3.324,0 -6,2.676 -6,6 l 0,0.53125 C 56,8.9207 58.9207,6 62.53125,6 L 62,6 z m 71.46875,0 C 137.0793,6 140,8.9207 140,12.53125 L 140,12 c 0,-3.324 -2.676,-6 -6,-6 l -0.53125,0 z M 140,12.53125 c 0,36.73465 -3.54263,60.10471 -7.84375,69.9375 C 121.33994,87.4996 96.479512,90 62.53125,90 L 134,90 c 3.324,0 6,-2.676 6,-6 l 0,-71.46875 z M 62.53125,90 C 58.9207,89.9945 56,87.0793 56,83.46875 L 56,84 c 0,3.324 2.676,6 6,6 l 0.53125,0 z"
         inkscape:connector-curvature="0"
         id="path3802"
         style="fill:url(#linearGradient3804);fill-opacity:1;fill-rule:nonzero;stroke:none" />
    </clipPath>
    <filter
       color-interpolation-filters="sRGB"
       id="filter3810">
      <feGaussianBlur
         id="feGaussianBlur3812"
         stdDeviation="1.2600071" />
    </filter>
    <radialGradient
       inkscape:collect="always"
       xlink:href="#linearGradient3737"
       id="radialGradient2952"
       gradientUnits="userSpaceOnUse"
       gradientTransform="matrix(1.1573129,0,0,0.99590774,-15.97117,-2.6549757)"
       cx="48"
       cy="90.171875"
       fx="48"
       fy="90.171875"
       r="42" />
    <linearGradient
       id="linearGradient2976">
      <stop
         id="stop2978"
         style="stop-color:#ffffff;stop-opacity:1"
         offset="0" />
      <stop
         id="stop2980"
         style="stop-color:#ffffff;stop-opacity:0"
         offset="1" />
    </linearGradient>
    <linearGradient
       gradientTransform="translate(1.57985,-2.8521057)"
       inkscape:collect="always"
       xlink:href="#ButtonColor-0"
       id="linearGradient2955"
       gradientUnits="userSpaceOnUse"
       x1="48"
       y1="90"
       x2="48"
       y2="5.9877172" />
    <linearGradient
       x1="58.650177"
       y1="122"
       x2="58.650177"
       y2="5.4252338"
       id="ButtonColor-0"
       gradientUnits="userSpaceOnUse"
       gradientTransform="matrix(1.0172414,0,0,1.0172414,-1.1034483,-1.1034483)">
      <stop
         id="stop3189-4"
         style="stop-color:#f0f0f0;stop-opacity:1"
         offset="0" />
      <stop
         id="stop3191-8"
         style="stop-color:#ffffff;stop-opacity:1"
         offset="1" />
    </linearGradient>
    <linearGradient
       x1="46.965103"
       y1="93.415817"
       x2="46.965103"
       y2="8.3638449"
       id="linearGradient3760"
       xlink:href="#ButtonShadow"
       gradientUnits="userSpaceOnUse"
       gradientTransform="translate(-1,-1)" />
    <linearGradient
       x1="45.447727"
       y1="92.539597"
       x2="45.447727"
       y2="7.0165396"
       id="ButtonShadow"
       gradientUnits="userSpaceOnUse"
       gradientTransform="scale(1.0058652,0.994169)">
      <stop
         id="stop3750"
         style="stop-color:#000000;stop-opacity:1"
         offset="0" />
      <stop
         id="stop3752"
         style="stop-color:#000000;stop-opacity:0.58823532"
         offset="1" />
    </linearGradient>
    <linearGradient
       x1="46.965103"
       y1="93.415817"
       x2="46.965103"
       y2="8.3638449"
       id="linearGradient3752"
       xlink:href="#ButtonShadow"
       gradientUnits="userSpaceOnUse"
       gradientTransform="translate(-1,-1)" />
    <linearGradient
       x1="45.447727"
       y1="92.539597"
       x2="45.447727"
       y2="7.0165396"
       id="linearGradient2991"
       gradientUnits="userSpaceOnUse"
       gradientTransform="scale(1.0058652,0.994169)">
      <stop
         id="stop2993"
         style="stop-color:#000000;stop-opacity:1"
         offset="0" />
      <stop
         id="stop2995"
         style="stop-color:#000000;stop-opacity:0.58823532"
         offset="1" />
    </linearGradient>
    <linearGradient
       x1="46.965103"
       y1="93.415817"
       x2="46.965103"
       y2="8.3638449"
       id="linearGradient3736"
       xlink:href="#ButtonShadow"
       gradientUnits="userSpaceOnUse"
       gradientTransform="translate(-1,-1)" />
    <linearGradient
       x1="45.447727"
       y1="92.539597"
       x2="45.447727"
       y2="7.0165396"
       id="linearGradient2998"
       gradientUnits="userSpaceOnUse"
       gradientTransform="scale(1.0058652,0.994169)">
      <stop
         id="stop3000"
         style="stop-color:#000000;stop-opacity:1"
         offset="0" />
      <stop
         id="stop3002"
         style="stop-color:#000000;stop-opacity:0.58823532"
         offset="1" />
    </linearGradient>
    <linearGradient
       x1="46.965103"
       y1="93.415817"
       x2="46.965103"
       y2="8.3638449"
       id="linearGradient3722"
       xlink:href="#ButtonShadow"
       gradientUnits="userSpaceOnUse"
       gradientTransform="translate(-1,-1)" />
    <linearGradient
       x1="45.447727"
       y1="92.539597"
       x2="45.447727"
       y2="7.0165396"
       id="linearGradient3005"
       gradientUnits="userSpaceOnUse"
       gradientTransform="scale(1.0058652,0.994169)">
      <stop
         id="stop3007"
         style="stop-color:#000000;stop-opacity:1"
         offset="0" />
      <stop
         id="stop3009"
         style="stop-color:#000000;stop-opacity:0.58823532"
         offset="1" />
    </linearGradient>
    <linearGradient
       x1="47.868935"
       y1="91.174545"
       x2="47.868935"
       y2="5.8992176"
       id="linearGradient3707"
       xlink:href="#ButtonShadow"
       gradientUnits="userSpaceOnUse" />
    <linearGradient
       x1="45.447727"
       y1="92.539597"
       x2="45.447727"
       y2="7.0165396"
       id="linearGradient3012"
       gradientUnits="userSpaceOnUse"
       gradientTransform="scale(1.0058652,0.994169)">
      <stop
         id="stop3014"
         style="stop-color:#000000;stop-opacity:1"
         offset="0" />
      <stop
         id="stop3016"
         style="stop-color:#000000;stop-opacity:0.58823532"
         offset="1" />
    </linearGradient>
    <linearGradient
       y2="5.8992176"
       x2="47.868935"
       y1="91.174545"
       x1="47.868935"
       gradientUnits="userSpaceOnUse"
       id="linearGradient3035"
       xlink:href="#ButtonShadow"
       inkscape:collect="always" />
  </defs>
  <sodipodi:namedview
     id="base"
     pagecolor="#ffffff"
     bordercolor="#666666"
     borderopacity="1.0"
     inkscape:pageopacity="0.0"
     inkscape:pageshadow="2"
     inkscape:zoom="1.4"
     inkscape:cx="210.05578"
     inkscape:cy="45.483155"
     inkscape:document-units="px"
     inkscape:current-layer="layer1"
     showgrid="false"
     inkscape:window-width="981"
     inkscape:window-height="605"
     inkscape:window-x="2056"
     inkscape:window-y="182"
     inkscape:window-maximized="0" />
  <metadata
     id="metadata3042">
    <rdf:RDF>
      <cc:Work
         rdf:about="">
        <dc:format>image/svg+xml</dc:format>
        <dc:type
           rdf:resource="http://purl.org/dc/dcmitype/StillImage" />
        <dc:title></dc:title>
      </cc:Work>
    </rdf:RDF>
  </metadata>
  <g
     inkscape:label="Calque 1"
     inkscape:groupmode="layer"
     id="layer1"
     transform="translate(0.42015,-1.1647374)">
    <g
       transform="translate(1.57985,-2.8521057)"
       id="layer3"
       style="display:inline">
      <path
         d="M 12,4.09375 C 5.958559,3.9197191 1.4013336,9.7548505 2.125,15.53125 l -0.03125,0 c 0.0309,23.462972 -0.077155,46.904914 0.03125,70.375 a 0.89898646,0.89898646 0 0 0 0,0.0625 c 0.4135931,5.805998 6.1890583,9.610267 11.65625,8.9375 0.04186,-0.0052 0.08318,0.0057 0.125,0 23.670234,-0.03037 47.322706,0.07697 71,-0.03125 a 0.89898646,0.89898646 0 0 0 0.0625,0 c 5.805997,-0.413599 9.610267,-6.189058 8.9375,-11.65625 -0.0052,-0.04186 0.0057,-0.08318 0,-0.125 -0.03035,-23.336851 0.07696,-46.655962 -0.03125,-70 a 0.89898646,0.89898646 0 0 0 0,-0.0625 C 93.461407,7.2252516 87.685942,3.4209829 82.21875,4.09375 c -0.04121,6.156e-4 -0.08378,-5.689e-4 -0.125,0 C 77.816605,4.1527751 73.471998,3.9644816 69.125,4.1875 A 0.89898646,0.89898646 0 0 0 68.5,4.5 C 68.258195,4.7716239 68.114165,4.8160828 68.125,4.8125 67.945266,4.7390723 67.326189,4.2742446 66.375,4.125 A 0.89898646,0.89898646 0 0 0 66.25,4.09375 C 53.952869,4.1146989 41.647271,4.0518794 29.34375,4.125 a 0.89898646,0.89898646 0 0 0 -0.5625,0.21875 C 28.488372,4.5801621 28.293078,4.7029151 28.1875,4.75 28.081922,4.7970849 28.092979,4.7854347 28.0625,4.78125 28.001543,4.7728806 27.606489,4.5517268 26.875,4.1875 A 0.89898646,0.89898646 0 0 0 26.46875,4.09375 l -14.4375,0 -0.03125,0 z m 16.09375,8.6875 c 0.226923,0.244044 0.358574,0.498158 0.375,0.75 0.02604,0.39918 -0.161138,0.861966 -0.40625,1.125 -0.114331,0.12269 -0.223886,0.196155 -0.28125,0.21875 0.02231,0.0073 -0.27871,-0.3392 -0.3125,-1.40625 0.01928,-0.126056 0.06772,-0.162919 0.3125,-0.375 0.07441,-0.06447 0.212783,-0.230306 0.3125,-0.3125 z m 40,0 c 0.226923,0.244044 0.358574,0.498158 0.375,0.75 0.02604,0.39918 -0.161138,0.861966 -0.40625,1.125 -0.114331,0.12269 -0.223886,0.196155 -0.28125,0.21875 0.02232,0.0073 -0.27871,-0.3392 -0.3125,-1.40625 0.01928,-0.126056 0.06772,-0.162919 0.3125,-0.375 0.07441,-0.06447 0.212783,-0.230306 0.3125,-0.3125 z"
         id="path3758"
         style="opacity:0.07999998;fill:url(#linearGradient3760);fill-opacity:1;fill-rule:nonzero;stroke:none" />
      <path
         d="M 12,5 C 6.5057413,4.8226625 2.2688151,10.242553 3,15.51889 3.0309044,38.985409 2.9381256,62.455054 3.0465048,85.919616 3.4221938,91.193519 8.7597,94.680368 13.772038,94 37.487508,93.96909 61.206104,94.06189 84.919616,93.9535 90.193519,93.577806 93.680368,88.2403 93,83.227962 92.969096,59.845825 93.061873,36.460563 92.953495,13.080384 92.577806,7.806481 87.2403,4.3196317 82.227962,5 77.875336,5.0650149 73.487523,4.8715384 69.15625,5.09375 67.963875,6.4331658 67.682915,5.2248289 66.25,5 53.948789,5.0209559 41.640647,4.9581688 29.34375,5.03125 28.049941,6.0756153 27.841446,5.6834995 26.46875,5 21.645833,5 16.822917,5 12,5 z m 16,6.5625 c 3.752455,2.026235 -1.381779,7.249395 -1.430983,1.851426 C 26.677832,12.5193 27.639226,12.271287 28,11.5625 z m 40,0 c 3.752455,2.026235 -1.381779,7.249395 -1.430983,1.851426 C 66.677832,12.5193 67.639226,12.271287 68,11.5625 z"
         inkscape:connector-curvature="0"
         id="path3744"
         style="opacity:0.1;fill:url(#linearGradient3752);fill-opacity:1;fill-rule:nonzero;stroke:none" />
      <path
         d="M 12,5.96875 C 7.5628051,5.96875 3.96875,9.5628051 3.96875,14 l 0,71 c 0,4.437195 3.5940551,8.03125 8.03125,8.03125 l 72,0 c 4.437195,0 8.03125,-3.594055 8.03125,-8.03125 l 0,-71 C 92.03125,9.5628051 88.437195,5.96875 84,5.96875 l -14.25,0 A 1.0420122,1.0420122 0 0 0 68.71875,7 l 0,3.5625 a 1.0420122,1.0420122 0 0 0 0.46875,0.875 c 0.737994,0.488062 1.28125,1.413642 1.28125,2.5625 0,1.717559 -1.174525,2.96875 -2.46875,2.96875 -1.294225,0 -2.46875,-1.251191 -2.46875,-2.96875 0,-1.148858 0.543256,-2.074438 1.28125,-2.5625 a 1.0420122,1.0420122 0 0 0 0.46875,-0.875 l 0,-3.5625 A 1.0420122,1.0420122 0 0 0 66.25,5.96875 l -36.5,0 A 1.0420122,1.0420122 0 0 0 28.71875,7 l 0,3.5625 a 1.0420122,1.0420122 0 0 0 0.46875,0.875 c 0.737994,0.488062 1.28125,1.413642 1.28125,2.5625 0,1.717559 -1.174525,2.96875 -2.46875,2.96875 -1.294225,0 -2.46875,-1.251191 -2.46875,-2.96875 0,-1.148858 0.543256,-2.074438 1.28125,-2.5625 a 1.0420122,1.0420122 0 0 0 0.46875,-0.875 l 0,-3.5625 A 1.0420122,1.0420122 0 0 0 26.25,5.96875 l -14.25,0 z"
         inkscape:connector-curvature="0"
         id="path3734"
         style="opacity:0.2;fill:url(#linearGradient3736);fill-opacity:1;fill-rule:nonzero;stroke:none" />
      <path
         d="M 12,7 C 8.122,7 5,10.122 5,14 l 0,71 c 0,3.878 3.122,7 7,7 l 72,0 c 3.878,0 7,-3.122 7,-7 L 91,14 C 91,10.122 87.878,7 84,7 l -14.25,0 0,3.5625 c 1.046496,0.692085 1.75,1.958291 1.75,3.4375 0,2.209139 -1.563432,4 -3.5,4 -1.936568,0 -3.5,-1.790861 -3.5,-4 0,-1.479209 0.703504,-2.745415 1.75,-3.4375 l 0,-3.5625 -36.5,0 0,3.5625 c 1.046496,0.692085 1.75,1.958291 1.75,3.4375 0,2.209139 -1.563432,4 -3.5,4 -1.936568,0 -3.5,-1.790861 -3.5,-4 0,-1.479209 0.703504,-2.745415 1.75,-3.4375 L 26.25,7 12,7 z"
         inkscape:connector-curvature="0"
         id="rect3713"
         style="opacity:0.3;fill:url(#linearGradient3722);fill-opacity:1;fill-rule:nonzero;stroke:none" />
      <path
         d="M 12,7 C 8.676,7 6,9.676 6,13 l 0,72 c 0,3.324 2.676,6 6,6 l 72,0 c 3.324,0 6,-2.676 6,-6 L 90,13 C 90,9.676 87.324,7 84,7 l -14,0 0,2.5625 c 1.193791,0.692085 2,1.958291 2,3.4375 0,2.209139 -1.790861,4 -4,4 -2.209139,0 -4,-1.790861 -4,-4 0,-1.479209 0.806209,-2.745415 2,-3.4375 L 66,7 30,7 30,9.5625 c 1.193791,0.692085 2,1.958291 2,3.4375 0,2.209139 -1.790861,4 -4,4 -2.209139,0 -4,-1.790861 -4,-4 0,-1.479209 0.806209,-2.745415 2,-3.4375 L 26,7 12,7 z"
         inkscape:connector-curvature="0"
         id="path3693"
         style="opacity:0.45;fill:url(#linearGradient3035);fill-opacity:1;fill-rule:nonzero;stroke:none" />
    </g>
    <path
       style="fill:url(#linearGradient2955);fill-opacity:1;fill-rule:nonzero;stroke:none"
       id="rect2419"
       inkscape:connector-curvature="0"
       d="m 13.57985,3.1478943 c -3.324,0 -6,2.676 -6,5.9999997 l 0,72 c 0,3.324 2.676,6 6,6 l 72,0 c 3.324,0 6,-2.676 6,-6 l 0,-72 c 0,-3.3239997 -2.676,-5.9999997 -6,-5.9999997 l -14,0 0,2.5625 c 1.19379,0.69209 2,1.95829 2,3.4374997 0,2.20914 -1.79086,4 -4,4 -2.20914,0 -4,-1.79086 -4,-4 0,-1.4792097 0.80621,-2.7454097 2,-3.4374997 l 0,-2.5625 -36,0 0,2.5625 c 1.19379,0.69209 2,1.95829 2,3.4374997 0,2.20914 -1.79086,4 -4,4 -2.20914,0 -4,-1.79086 -4,-4 0,-1.4792097 0.80621,-2.7454097 2,-3.4374997 l 0,-2.5625 -14,0 z" />
    <path
       style="opacity:0.2;fill:url(#radialGradient2952);fill-opacity:1;fill-rule:nonzero;stroke:none"
       id="path3615"
       inkscape:connector-curvature="0"
       d="m 3.57985,87.147894 c -3.324,0 -6,-2.676 -6,-6 l 0,-2 0,-68 0,-2 c 0,-0.33472 0.0414,-0.6507 0.0937,-0.96875 0.0487,-0.2955897 0.097,-0.5969097 0.1875,-0.8749997 0.01,-0.0304 0.0209,-0.0636 0.0312,-0.0937 0.0989,-0.28777 0.23488,-0.54745 0.375,-0.8125 0.14459,-0.2735 0.31562,-0.53561 0.5,-0.78125 0.18438,-0.24563 0.37378,-0.47347 0.59375,-0.6875 0.43995,-0.42805 0.94291,-0.81452 1.5,-1.09375 0.27855,-0.13961 0.57347,-0.24694 0.875,-0.34375 -0.2562,0.10022 -0.48671,0.23627 -0.71875,0.375 -0.007,0.004 -0.0239,-0.005 -0.0312,0 -0.0319,0.0193 -0.0623,0.0425 -0.0937,0.0625 -0.12039,0.0767 -0.23102,0.16352 -0.34375,0.25 -0.10617,0.0808 -0.21328,0.16111 -0.3125,0.25 -0.17793,0.16144 -0.34746,0.34539 -0.5,0.53125 -0.10758,0.13026 -0.21839,0.26529 -0.3125,0.40625 -0.0251,0.0384 -0.0384,0.0859 -0.0625,0.125 -0.0648,0.10303 -0.13023,0.20452 -0.1875,0.3125 -0.10101,0.19471 -0.20567,0.4157 -0.28125,0.625 -0.008,0.0218 -0.0236,0.0406 -0.0312,0.0625 -0.0318,0.0919 -0.0358,0.18683 -0.0625,0.28125 -0.0303,0.10662 -0.0704,0.20303 -0.0937,0.3125 -0.0729,0.34151 -0.125,0.69821 -0.125,1.0624997 l 0,2 0,68 0,2 c 0,2.78185 2.21815,5 5,5 l 2,0 68,0 2,0 c 2.78185,0 5,-2.21815 5,-5 l 0,-2 0,-68 0,-2 c 0,-0.3642897 -0.0521,-0.7209897 -0.125,-1.0624997 -0.0442,-0.20689 -0.0884,-0.39766 -0.15625,-0.59375 -0.008,-0.0219 -0.0233,-0.0407 -0.0312,-0.0625 -0.0627,-0.17374 -0.13838,-0.36745 -0.21875,-0.53125 -0.0416,-0.0828 -0.079,-0.16995 -0.125,-0.25 -0.0546,-0.0972 -0.12677,-0.18835 -0.1875,-0.28125 -0.0941,-0.14096 -0.20492,-0.27599 -0.3125,-0.40625 -0.14317,-0.17445 -0.30314,-0.347 -0.46875,-0.5 -0.0112,-0.0102 -0.02,-0.0211 -0.0312,-0.0312 -0.13839,-0.12555 -0.28509,-0.23443 -0.4375,-0.34375 -0.10257,-0.0731 -0.20432,-0.15336 -0.3125,-0.21875 -0.007,-0.005 -0.0238,0.004 -0.0312,0 -0.23204,-0.13873 -0.46255,-0.27478 -0.71875,-0.375 0.30153,0.0968 0.59646,0.20414 0.875,0.34375 0.55709,0.27923 1.06005,0.6657 1.5,1.09375 0.21997,0.21403 0.40937,0.44187 0.59375,0.6875 0.18438,0.24564 0.35541,0.50775 0.5,0.78125 0.14012,0.26505 0.27614,0.52473 0.375,0.8125 0.0104,0.0308 0.0213,0.0627 0.0312,0.0937 0.0905,0.27809 0.1388,0.57941 0.1875,0.8749997 0.0524,0.31805 0.0937,0.63403 0.0937,0.96875 l 0,2 0,68 0,2 c 0,3.324 -2.676,6 -6,6 l -72,0 z" />
    <path
       style="opacity:0.5;fill:#4d4d4d;fill-opacity:1;stroke:none;display:inline;filter:url(#filter3810)"
       id="path3785"
       clip-path="url(#clipPath3800)"
       transform="translate(-48.42015,-2.8521057)"
       inkscape:connector-curvature="0"
       d="M 62.51724,6 C 58.90669,6 56,8.90669 56,12.517241 l 0,70.965519 c 0,3.610548 2.90669,6.511737 6.51724,6.51724 33.948262,0 61.15737,0.163148 73.40225,-3.796268 C 139.14918,76.192373 140,49.251888 140,12.517241 140,8.90669 137.09331,6 133.48276,6 L 62.51724,6 z" />
    <path
       style="opacity:0.8;fill:url(#linearGradient2948);fill-opacity:1;stroke:none;display:inline"
       id="path3177"
       inkscape:connector-curvature="0"
       d="m 14.1111,3.1478943 c -3.61055,0 -6.53125,2.9207 -6.53125,6.5312497 l 0,70.9375 c 0,3.61055 2.9207,6.52575 6.53125,6.53125 33.94826,0 58.80869,-2.5004 69.625,-7.53125 4.30111,-9.83279 7.84375,-33.20285 7.84375,-69.9375 0,-3.6105497 -2.9207,-6.5312497 -6.53125,-6.5312497 l -13.46875,0 0,2.5625 c 1.19379,0.69209 2,1.95829 2,3.4374997 0,2.20914 -1.79086,4 -4,4 -2.20914,0 -4,-1.79086 -4,-4 0,-1.4792097 0.80621,-2.7454097 2,-3.4374997 l 0,-2.5625 -36,0 0,2.5625 c 1.19379,0.69209 2,1.95829 2,3.4374997 0,2.20914 -1.79086,4 -4,4 -2.20914,0 -4,-1.79086 -4,-4 0,-1.4792097 0.80621,-2.7454097 2,-3.4374997 l 0,-2.5625 -13.46875,0 z" />
    <path
       style="opacity:0.8;fill:url(#linearGradient2945);fill-opacity:1;stroke:none"
       id="rect2918"
       inkscape:connector-curvature="0"
       d="m 7.57985,25.147894 84,0 c 0,0 -0.50508,19.03934 -4.04061,40.12627 l -79.95939,-0.12627 0,-40 z" />
    <path
       style="opacity:0.5;fill:url(#linearGradient2938);fill-opacity:1;stroke:none;display:inline"
       id="path3814"
       inkscape:connector-curvature="0"
       d="m 89.14235,4.5853943 c 0.89504,1.11563 1.4375,2.54573 1.4375,4.0937497 0,36.73465 -3.54264,60.10471 -7.84375,69.9375 -10.81631,5.03085 -35.67674,7.53125 -69.625,7.53125 -1.54802,-0.002 -2.97812,-0.54285 -4.09375,-1.4375 1.19251,1.48546 3.03122,2.43436 5.09375,2.4375 33.94826,0 58.80869,-2.5004 69.625,-7.53125 4.30111,-9.83279 7.84375,-33.20285 7.84375,-69.9375 0,-2.0625197 -0.95108,-3.9012397 -2.4375,-5.0937497 z" />
    <path
       style="opacity:0.1;fill:#000000;fill-opacity:1;stroke:none;display:inline"
       id="path3831"
       inkscape:connector-curvature="0"
       d="m 91.5486,16.429144 c -0.40529,32.8535 -3.78151,53.97226 -7.8125,63.1875 -10.14029,4.71642 -32.62864,7.20523 -63.375,7.5 30.86516,-0.0999 54.68077,-1.00631 64.8125,-5.71875 4.0323,-9.21824 6.12845,-31.90074 6.375,-64.96875 z" />
    <path
       style="opacity:0.4;fill:url(#linearGradient2934);fill-opacity:1;fill-rule:nonzero;stroke:none"
       id="rect3728"
       inkscape:connector-curvature="0"
       d="m 13.57985,3.1478943 c -3.324,0 -6,2.676 -6,5.9999997 l 0,2 0,68 0,2 c 0,0.33472 0.0413,0.6507 0.0937,0.96875 0.0487,0.2956 0.097,0.59692 0.1875,0.875 0.01,0.0304 0.0209,0.0636 0.0312,0.0937 0.0989,0.28777 0.23488,0.54745 0.375,0.8125 0.14459,0.27351 0.31562,0.53562 0.5,0.78125 0.18438,0.24564 0.37378,0.47347 0.59375,0.6875 0.43995,0.42806 0.94291,0.81453 1.5,1.09375 0.27855,0.13961 0.57347,0.24695 0.875,0.34375 -0.2562,-0.10022 -0.48671,-0.23627 -0.71875,-0.375 -0.007,-0.004 -0.0239,0.005 -0.0312,0 -0.0319,-0.0193 -0.0623,-0.0425 -0.0937,-0.0625 -0.12039,-0.0767 -0.23102,-0.16351 -0.34375,-0.25 -0.10617,-0.0808 -0.21328,-0.16111 -0.3125,-0.25 -0.17793,-0.16143 -0.34746,-0.34539 -0.5,-0.53125 -0.10758,-0.13025 -0.21839,-0.26528 -0.3125,-0.40625 -0.0251,-0.0384 -0.0384,-0.0859 -0.0625,-0.125 -0.0648,-0.10303 -0.13023,-0.20451 -0.1875,-0.3125 -0.10101,-0.1947 -0.20567,-0.4157 -0.28125,-0.625 -0.008,-0.0218 -0.0236,-0.0405 -0.0312,-0.0625 -0.0318,-0.0919 -0.0358,-0.18683 -0.0625,-0.28125 -0.0303,-0.10662 -0.0704,-0.20303 -0.0937,-0.3125 -0.0729,-0.34151 -0.125,-0.6982 -0.125,-1.0625 l 0,-2 0,-68 0,-2 c 0,-2.7818497 2.21815,-4.9999997 5,-4.9999997 l 2,0 12,0 0,-2 -14,0 z m 18,0 0,2 36,0 0,-2 -36,0 z m 40,0 0,2 12,0 2,0 c 2.78185,0 5,2.21815 5,4.9999997 l 0,2 0,68 0,2 c 0,0.3643 -0.0521,0.72099 -0.125,1.0625 -0.0442,0.2069 -0.0884,0.39766 -0.15625,0.59375 -0.008,0.022 -0.0233,0.0407 -0.0312,0.0625 -0.0627,0.17374 -0.13838,0.36745 -0.21875,0.53125 -0.0416,0.0828 -0.079,0.16996 -0.125,0.25 -0.0546,0.0972 -0.12677,0.18835 -0.1875,0.28125 -0.0941,0.14097 -0.20492,0.276 -0.3125,0.40625 -0.14317,0.17445 -0.30314,0.347 -0.46875,0.5 -0.0112,0.0102 -0.02,0.0212 -0.0312,0.0312 -0.13839,0.12556 -0.28509,0.23444 -0.4375,0.34375 -0.10257,0.0732 -0.20432,0.15337 -0.3125,0.21875 -0.007,0.005 -0.0238,-0.004 -0.0312,0 -0.23204,0.13873 -0.46255,0.27478 -0.71875,0.375 0.30153,-0.0968 0.59646,-0.20414 0.875,-0.34375 0.55709,-0.27922 1.06005,-0.66569 1.5,-1.09375 0.21997,-0.21403 0.40937,-0.44186 0.59375,-0.6875 0.18438,-0.24563 0.35541,-0.50774 0.5,-0.78125 0.14012,-0.26505 0.27614,-0.52473 0.375,-0.8125 0.0104,-0.0308 0.0213,-0.0627 0.0312,-0.0937 0.0905,-0.27808 0.1388,-0.5794 0.1875,-0.875 0.0524,-0.31805 0.0937,-0.63403 0.0937,-0.96875 l 0,-2 0,-68 0,-2 c 0,-3.3239997 -2.676,-5.9999997 -6,-5.9999997 l -14,0 z" />
    <path
       style="opacity:0.3;fill:#ffffff;fill-opacity:1;stroke:none"
       id="path3739"
       inkscape:connector-curvature="0"
       d="m 25.6111,9.554144 c -0.03,0.19632 -0.0312,0.38824 -0.0312,0.59375 0,2.20914 1.79086,4 4,4 2.20914,0 4,-1.79086 4,-4 0,-0.20551 -0.001,-0.39743 -0.0312,-0.59375 -0.20402,2.01787 -1.89708,3.59375 -3.96875,3.59375 -2.07167,0 -3.76473,-1.57588 -3.96875,-3.59375 z m 40,0 c -0.03,0.19632 -0.0312,0.38824 -0.0312,0.59375 0,2.20914 1.79086,4 4,4 2.20914,0 4,-1.79086 4,-4 0,-0.20551 -10e-4,-0.39743 -0.0312,-0.59375 -0.20402,2.01787 -1.89708,3.59375 -3.96875,3.59375 -2.07167,0 -3.76473,-1.57588 -3.96875,-3.59375 z" />
    <path
       style="fill:url(#linearGradient2905);fill-opacity:1;fill-rule:nonzero;stroke:none"
       id="rect3839-9"
       inkscape:connector-curvature="0"
       d="m 13.39162,21.512604 c -3.324,0 -6.00001,1.83647 -6.00001,4.11764 l 0,16.47059 84,0 0,-16.47059 c 0,-2.28117 -2.676,-4.11764 -6,-4.11764 l -14,0 0,1.75858 c 1.1938,0.47496 2,1.34392 2,2.35906 0,1.51608 -1.79086,2.7451 -4,2.7451 -2.20913,0 -4,-1.22902 -4,-2.7451 0,-1.01514 0.80621,-1.8841 2,-2.35906 l 0,-1.75858 -36,0 0,1.75858 c 1.1938,0.47496 2,1.34392 2,2.35906 0,1.51608 -1.79086,2.7451 -3.99999,2.7451 -2.20914,0 -4,-1.22902 -4,-2.7451 0,-1.01514 0.8062,-1.8841 2,-2.35906 l 0,-1.75858 -14,0 z" />
    <path
       style="fill:url(#linearGradient2942);fill-opacity:1;fill-rule:nonzero;stroke:none"
       id="rect3839"
       inkscape:connector-curvature="0"
       d="m 13.57985,3.1478943 c -3.324,0 -6,2.77675 -6,6.2258797 l 0,24.90353 84,0 0,-24.90353 c 0,-3.4491297 -2.676,-6.2258797 -6,-6.2258797 l -14,0 0,2.65897 c 1.19379,0.71814 2,2.03202 2,3.5669097 0,2.29231 -1.79086,4.15059 -4,4.15059 -2.20914,0 -4,-1.85828 -4,-4.15059 0,-1.5348897 0.80621,-2.8487697 2,-3.5669097 l 0,-2.65897 -36,0 0,2.65897 c 1.19379,0.71814 2,2.03202 2,3.5669097 0,2.29231 -1.79086,4.15059 -4,4.15059 -2.20914,0 -4,-1.85828 -4,-4.15059 0,-1.5348897 0.80621,-2.8487697 2,-3.5669097 l 0,-2.65897 -14,0 z" />
  </g>
</svg>
